<svg id="Livello_1" data-name="Livello 1" xmlns="http://www.w3.org/2000/svg" xmlns:xlink="http://www.w3.org/1999/xlink" viewBox="0 0 769.74 265.29"><defs><style>.cls-1,.cls-2,.cls-3,.cls-7{fill:none;}.cls-2,.cls-3,.cls-7{stroke:#1d1d1b;stroke-width:0.27px;}.cls-3{stroke-dasharray:11.92 11.92;}.cls-4{fill:#f19855;}.cls-5{clip-path:url(#clip-path);}.cls-6{fill:#e46e5a;}.cls-7{stroke-dasharray:12.21 12.21;}.cls-8{fill:#439397;}.cls-9{fill:#1d1d1b;}.cls-10{fill:#f5c759;}.cls-11{fill:#e46d5c;}.cls-12{fill:#7383b9;}.cls-13{fill:#49a230;}.cls-14{font-size:32.91px;}.cls-14,.cls-15{fill:#fff;font-family:Helvetica, Helvetica;}.cls-15{font-size:16.46px;}</style><clipPath id="clip-path" transform="translate(-27.52 -165.99)"><rect class="cls-1" x="18" y="165.99" width="805.97" height="265.29"/></clipPath></defs><title>ok cool</title><line class="cls-2" x1="67.5" y1="91.79" x2="275.42" y2="91.79"/><line class="cls-3" x1="170.33" y1="91.63" x2="170.33" y2="198.92"/><rect class="cls-4" x="218.94" y="199.06" width="67.23" height="66.09"/><g class="cls-5"><rect class="cls-2" x="218.94" y="199.06" width="67.23" height="66.09"/></g><rect class="cls-6" x="136.91" y="199.06" width="67.23" height="66.09"/><g class="cls-5"><rect class="cls-2" x="136.91" y="199.06" width="67.23" height="66.09"/></g><line class="cls-7" x1="170.29" y1="91.71" x2="251.15" y2="198.98"/><line class="cls-7" x1="170.42" y1="91.57" x2="89.56" y2="198.84"/><rect class="cls-6" x="57.98" y="199.06" width="67.23" height="66.09"/><g class="cls-5"><rect class="cls-2" x="57.98" y="199.06" width="67.23" height="66.09"/></g><rect class="cls-8" x="0.14" y="59.13" width="67.23" height="66.09"/><rect class="cls-2" x="0.14" y="59.13" width="67.23" height="66.09"/><polygon class="cls-9" points="281.87 91.85 272.95 87.83 273.13 96.12 281.87 91.85"/><rect class="cls-10" x="282.88" y="59.13" width="67.23" height="66.09"/><rect class="cls-2" x="282.88" y="59.13" width="67.23" height="66.09"/><line class="cls-2" x1="350.33" y1="85.55" x2="420.96" y2="33.84"/><rect class="cls-4" x="421.75" y="0.14" width="67.23" height="66.09"/><rect class="cls-2" x="421.75" y="0.14" width="67.23" height="66.09"/><rect class="cls-11" x="421.75" y="119" width="67.23" height="66.09"/><rect class="cls-2" x="421.75" y="119" width="67.23" height="66.09"/><rect class="cls-6" x="581.81" y="0.14" width="67.23" height="66.09"/><rect class="cls-2" x="581.81" y="0.14" width="67.23" height="66.09"/><line class="cls-2" x1="489.11" y1="33.17" x2="579.38" y2="33.17"/><polygon class="cls-9" points="581.67 32.88 572.76 28.86 572.93 37.14 581.67 32.88"/><line class="cls-2" x1="615.27" y1="115.08" x2="615.27" y2="66.48"/><polygon class="cls-9" points="615.2 119.54 619.22 110.63 610.93 110.8 615.2 119.54"/><rect class="cls-12" x="702.37" y="0.15" width="67.23" height="66.09"/><rect class="cls-2" x="702.37" y="0.15" width="67.23" height="66.09"/><rect class="cls-13" x="582.11" y="119" width="66.66" height="66.09"/><rect class="cls-2" x="582.11" y="119" width="66.66" height="66.09"/><text class="cls-14" transform="translate(22.78 103)">S</text><text class="cls-14" transform="translate(83.47 242.06)">I</text><text class="cls-14" transform="translate(162.62 242.06)">I</text><text class="cls-14" transform="translate(244.05 242.06)">I</text><text class="cls-15" transform="translate(94.28 249.79)">A</text><text class="cls-15" transform="translate(174.49 249.79)">S</text><text class="cls-15" transform="translate(254.7 249.79)">P</text><text class="cls-14" transform="translate(305.86 104.05)">E</text><text class="cls-14" transform="translate(446.85 41.62)">I</text><text class="cls-15" transform="translate(457.5 49.32)">P</text><text class="cls-14" transform="translate(446.86 160.99)">I</text><text class="cls-15" transform="translate(457.66 168.71)">A</text><text class="cls-14" transform="translate(606.93 41.96)">I</text><text class="cls-15" transform="translate(618.79 49.68)">S</text><polygon class="cls-9" points="421.28 33.66 411.7 35.65 416.71 42.24 421.28 33.66"/><line class="cls-2" x1="350.66" y1="100.16" x2="421.29" y2="151.86"/><polygon class="cls-9" points="421.61 152.05 412.03 150.06 417.05 143.46 421.61 152.05"/><line class="cls-2" x1="489.41" y1="155.37" x2="581.98" y2="155.37"/><polygon class="cls-9" points="581.98 155.04 573.06 151.03 573.24 159.31 581.98 155.04"/><text class="cls-14" transform="translate(603.84 163.96)">R</text><line class="cls-2" x1="697.78" y1="33.21" x2="649.18" y2="33.21"/><polygon class="cls-9" points="702.24 33.28 693.32 29.27 693.5 37.55 702.24 33.28"/><text class="cls-14" transform="translate(724.1 45.25)">D</text></svg>